<svg width="24" height="24" viewBox="0 0 24 24" fill="none" xmlns="http://www.w3.org/2000/svg">
<path d="M14 3V7C14 7.26522 14.1054 7.51957 14.2929 7.70711C14.4804 7.89464 14.7348 8 15 8H19M14 3H7C6.46957 3 5.96086 3.21071 5.58579 3.58579C5.21071 3.96086 5 4.46957 5 5V19C5 19.5304 5.21071 20.0391 5.58579 20.4142C5.96086 20.7893 6.46957 21 7 21H12M14 3L19 8M19 8V12.5M18.5 19.5L21 22M19 17.5C19 18.8807 17.8807 20 16.5 20C15.1193 20 14 18.8807 14 17.5C14 16.1193 15.1193 15 16.5 15C17.8807 15 19 16.1193 19 17.5Z" stroke="#336FEE" stroke-width="2" stroke-linecap="round" stroke-linejoin="round"/>
</svg>
