<svg width="16" height="16" viewBox="0 0 16 16" fill="none" xmlns="http://www.w3.org/2000/svg">
<path d="M8.94 7.99999L12.4733 4.47332C12.5989 4.34779 12.6694 4.17753 12.6694 3.99999C12.6694 3.82246 12.5989 3.65219 12.4733 3.52666C12.3478 3.40112 12.1775 3.3306 12 3.3306C11.8225 3.3306 11.6522 3.40112 11.5267 3.52666L8 7.05999L4.47333 3.52666C4.3478 3.40112 4.17753 3.3306 4 3.3306C3.82247 3.3306 3.6522 3.40112 3.52667 3.52666C3.40113 3.65219 3.33061 3.82246 3.33061 3.99999C3.33061 4.17753 3.40113 4.34779 3.52667 4.47332L7.06 7.99999L3.52667 11.5267C3.46418 11.5886 3.41458 11.6624 3.38074 11.7436C3.34689 11.8248 3.32947 11.912 3.32947 12C3.32947 12.088 3.34689 12.1751 3.38074 12.2564C3.41458 12.3376 3.46418 12.4113 3.52667 12.4733C3.58864 12.5358 3.66238 12.5854 3.74362 12.6193C3.82485 12.6531 3.91199 12.6705 4 12.6705C4.08801 12.6705 4.17515 12.6531 4.25638 12.6193C4.33762 12.5854 4.41136 12.5358 4.47333 12.4733L8 8.93999L11.5267 12.4733C11.5886 12.5358 11.6624 12.5854 11.7436 12.6193C11.8249 12.6531 11.912 12.6705 12 12.6705C12.088 12.6705 12.1751 12.6531 12.2564 12.6193C12.3376 12.5854 12.4114 12.5358 12.4733 12.4733C12.5358 12.4113 12.5854 12.3376 12.6193 12.2564C12.6531 12.1751 12.6705 12.088 12.6705 12C12.6705 11.912 12.6531 11.8248 12.6193 11.7436C12.5854 11.6624 12.5358 11.5886 12.4733 11.5267L8.94 7.99999Z" fill="black"/>
</svg>
