<svg width="360" height="67" viewBox="0 0 360 67" fill="none" xmlns="http://www.w3.org/2000/svg">
<g filter="url(#filter0_d_189_2640)">
<g clip-path="url(#clip0_189_2640)">
<path d="M90.964 42.3225V34.0755H88.7859V29.8271H90.964V25.4121H96.1045V29.8271H100.374V34.0755H96.1045V41.4894C96.1045 42.6557 96.6272 43.1555 97.7598 43.1555C98.7182 43.1555 99.5895 42.9056 100.286 42.5724V46.5709C99.241 47.154 97.9341 47.5705 96.1916 47.5705C93.0551 47.5705 90.964 46.4043 90.964 42.3225Z" fill="#333333"/>
<path d="M102.81 38.5726C102.81 33.5744 106.556 29.4926 111.784 29.4926C117.883 29.4926 120.671 33.9909 120.671 38.9891C120.671 39.4056 120.671 39.8221 120.584 40.3219H107.95C108.473 42.5711 110.129 43.7373 112.394 43.7373C114.136 43.7373 115.356 43.2375 116.837 41.988L119.8 44.4871C118.057 46.4863 115.618 47.7359 112.394 47.7359C106.818 47.6525 102.81 43.9872 102.81 38.5726ZM115.618 37.2397C115.269 34.9906 113.962 33.5744 111.784 33.5744C109.606 33.5744 108.212 35.0739 107.863 37.2397H115.618Z" fill="#333333"/>
<path d="M128.36 38.4084L122.174 29.8282H127.75L131.148 34.9097L134.546 29.8282H139.948L133.762 38.3251L140.209 47.2384H134.633L130.974 41.8238L127.314 47.2384H121.913L128.36 38.4084Z" fill="#333333"/>
<path d="M143.358 29.8258H148.498V32.3249C149.718 30.8255 151.199 29.4926 153.813 29.4926C157.733 29.4926 159.999 31.9917 159.999 35.9902V47.2361H154.858V37.573C154.858 35.2405 153.726 33.991 151.722 33.991C149.718 33.991 148.498 35.1572 148.498 37.573V47.3194H143.358V29.8258Z" fill="#333333"/>
<path d="M163.632 38.5726C163.632 33.5744 167.814 29.4926 173.564 29.4926C179.227 29.4926 183.409 33.4911 183.409 38.5726C183.409 43.5707 179.227 47.6526 173.477 47.6526C167.814 47.6526 163.632 43.6541 163.632 38.5726ZM178.269 38.5726C178.269 35.9902 176.352 33.741 173.477 33.741C170.515 33.741 168.772 35.9069 168.772 38.5726C168.772 41.155 170.689 43.4041 173.564 43.4041C176.526 43.4041 178.269 41.2383 178.269 38.5726Z" fill="#333333"/>
<path d="M187.068 29.8258H192.209V32.3249C193.428 30.8255 194.997 29.4926 197.61 29.4926C199.963 29.4926 201.792 30.4922 202.751 32.2416C204.319 30.4922 206.236 29.4926 208.762 29.4926C212.596 29.4926 214.948 31.7418 214.948 35.9069V47.2361H209.808V37.573C209.808 35.2405 208.762 33.991 206.759 33.991C204.842 33.991 203.622 35.1572 203.622 37.573V47.3194H198.482V37.573C198.482 35.2405 197.436 33.991 195.432 33.991C193.515 33.991 192.296 35.1572 192.296 37.573V47.3194H187.155V29.8258H187.068Z" fill="#333333"/>
<path d="M218.241 42.2269C218.241 38.395 221.291 36.6456 225.56 36.6456C227.389 36.6456 228.696 36.9788 230.003 37.3953V37.0621C230.003 34.9796 228.696 33.8966 226.083 33.8966C224.079 33.8966 222.685 34.2298 221.029 34.813L219.722 31.0643C221.726 30.2313 223.73 29.6482 226.78 29.6482C229.568 29.6482 231.659 30.3979 232.965 31.5642C234.36 32.897 234.969 34.813 234.969 37.1454V47.225H230.003V45.3091C228.783 46.6419 227.041 47.5583 224.514 47.5583C221.116 47.5583 218.241 45.7256 218.241 42.2269ZM230.177 41.144V40.2276C229.306 39.8111 228.174 39.5612 226.867 39.5612C224.689 39.5612 223.295 40.3942 223.295 42.0603C223.295 43.3931 224.427 44.1428 226.083 44.1428C228.522 44.1428 230.177 42.8933 230.177 41.144Z" fill="#333333"/>
<path d="M239.526 29.82H244.667V33.3188C245.712 30.903 247.455 29.3202 250.504 29.4868V34.6516H250.243C246.845 34.6516 244.667 36.6509 244.667 40.816V47.2303H239.526V29.82Z" fill="#333333"/>
<path d="M254.595 42.3225V34.0755H252.417V29.8271H254.595V25.4121H259.735V29.8271H264.004V34.0755H259.735V41.4894C259.735 42.6557 260.258 43.1555 261.391 43.1555C262.349 43.1555 263.22 42.9056 263.917 42.5724V46.5709C262.872 47.154 261.565 47.5705 259.822 47.5705C256.686 47.5705 254.595 46.4043 254.595 42.3225Z" fill="#333333"/>
<path d="M287.622 28.8348L285.008 33.2414L279.78 30.2173V36.2656H274.553V30.2173L269.325 33.2414L266.711 28.8348L272.026 25.8106L266.799 22.7864L269.325 18.3798L274.553 21.404V15.3556H279.78V21.404L285.008 18.3798L287.535 22.7864L282.307 25.8106L287.622 28.8348Z" fill="#333333"/>
</g>
</g>
<defs>
<filter id="filter0_d_189_2640" x="-17" y="0" width="394" height="67" filterUnits="userSpaceOnUse" color-interpolation-filters="sRGB">
<feFlood flood-opacity="0" result="BackgroundImageFix"/>
<feColorMatrix in="SourceAlpha" type="matrix" values="0 0 0 0 0 0 0 0 0 0 0 0 0 0 0 0 0 0 127 0" result="hardAlpha"/>
<feMorphology radius="1" operator="dilate" in="SourceAlpha" result="effect1_dropShadow_189_2640"/>
<feOffset dy="2"/>
<feGaussianBlur stdDeviation="8"/>
<feColorMatrix type="matrix" values="0 0 0 0 0 0 0 0 0 0 0 0 0 0 0 0 0 0 0.04 0"/>
<feBlend mode="normal" in2="BackgroundImageFix" result="effect1_dropShadow_189_2640"/>
<feBlend mode="normal" in="SourceGraphic" in2="effect1_dropShadow_189_2640" result="shape"/>
</filter>
<clipPath id="clip0_189_2640">
<rect width="200" height="33" fill="white" transform="translate(88 15)"/>
</clipPath>
</defs>
</svg>
