<svg width="20" height="20" viewBox="0 0 20 20" fill="none" xmlns="http://www.w3.org/2000/svg">
<path d="M7.93332 15.8333C7.82365 15.834 7.71493 15.813 7.6134 15.7715C7.51187 15.73 7.41952 15.6689 7.34165 15.5917C7.26355 15.5142 7.20155 15.422 7.15924 15.3205C7.11694 15.2189 7.09515 15.11 7.09515 15C7.09515 14.89 7.11694 14.7811 7.15924 14.6795C7.20155 14.578 7.26355 14.4858 7.34165 14.4083L11.7583 10L7.34165 5.59168C7.26395 5.51398 7.20232 5.42174 7.16027 5.32022C7.11822 5.2187 7.09658 5.10989 7.09658 5.00001C7.09658 4.89013 7.11822 4.78132 7.16027 4.6798C7.20232 4.57829 7.26395 4.48604 7.34165 4.40835C7.41935 4.33065 7.51159 4.26901 7.61311 4.22696C7.71463 4.18491 7.82344 4.16327 7.93332 4.16327C8.0432 4.16327 8.15201 4.18491 8.25353 4.22696C8.35504 4.26901 8.44729 4.33065 8.52498 4.40835L13.525 9.40835C13.6031 9.48582 13.6651 9.57798 13.7074 9.67953C13.7497 9.78108 13.7715 9.89 13.7715 10C13.7715 10.11 13.7497 10.2189 13.7074 10.3205C13.6651 10.422 13.6031 10.5142 13.525 10.5917L8.52498 15.5917C8.44712 15.6689 8.35477 15.73 8.25324 15.7715C8.15171 15.813 8.04299 15.834 7.93332 15.8333Z" fill="#767676"/>
</svg>
